<svg width="18" height="18" viewBox="0 0 18 18" fill="none" xmlns="http://www.w3.org/2000/svg">
<path d="M9.19544 3.56063C9.1431 3.51056 9.07346 3.48261 9.00103 3.48261C8.9286 3.48261 8.85896 3.51056 8.80662 3.56063L2.33435 9.74356C2.30686 9.76985 2.285 9.80145 2.27007 9.83643C2.25514 9.87142 2.24747 9.90907 2.24751 9.94711L2.24646 15.75C2.24646 16.0484 2.36499 16.3345 2.57596 16.5455C2.78694 16.7565 3.07309 16.875 3.37146 16.875H6.74998C6.89916 16.875 7.04223 16.8157 7.14772 16.7103C7.25321 16.6048 7.31248 16.4617 7.31248 16.3125V11.5313C7.31248 11.4567 7.34211 11.3851 7.39485 11.3324C7.4476 11.2796 7.51913 11.25 7.59373 11.25H10.4062C10.4808 11.25 10.5524 11.2796 10.6051 11.3324C10.6578 11.3851 10.6875 11.4567 10.6875 11.5313V16.3125C10.6875 16.4617 10.7467 16.6048 10.8522 16.7103C10.9577 16.8157 11.1008 16.875 11.25 16.875H14.6271C14.9255 16.875 15.2116 16.7565 15.4226 16.5455C15.6336 16.3345 15.7521 16.0484 15.7521 15.75V9.94711C15.7521 9.90907 15.7445 9.87142 15.7295 9.83643C15.7146 9.80145 15.6927 9.76985 15.6652 9.74356L9.19544 3.56063Z" fill="black"/>
<path d="M17.2586 8.5834L14.6289 6.06762V2.25C14.6289 2.10082 14.5696 1.95774 14.4641 1.85225C14.3586 1.74676 14.2156 1.6875 14.0664 1.6875H12.3789C12.2297 1.6875 12.0866 1.74676 11.9811 1.85225C11.8756 1.95774 11.8164 2.10082 11.8164 2.25V3.375L9.78013 1.42805C9.58958 1.23539 9.30622 1.125 9.00001 1.125C8.69486 1.125 8.4122 1.23539 8.22165 1.4284L0.74392 8.5827C0.525248 8.79363 0.497826 9.14062 0.69681 9.36914C0.746778 9.42682 0.807961 9.47373 0.876634 9.50702C0.945307 9.5403 1.02004 9.55926 1.09627 9.56275C1.1725 9.56623 1.24865 9.55417 1.32008 9.52729C1.3915 9.50042 1.45671 9.45929 1.51173 9.40641L8.80665 2.43562C8.859 2.38556 8.92864 2.35761 9.00107 2.35761C9.0735 2.35761 9.14314 2.38556 9.19548 2.43562L16.4911 9.40641C16.5986 9.50947 16.7425 9.56571 16.8914 9.56281C17.0403 9.55991 17.1819 9.4981 17.2853 9.39094C17.5011 9.16734 17.4832 8.7982 17.2586 8.5834Z" fill="black"/>
</svg>
